<svg width="200" height="90" viewBox="0 0 200 90" fill="none" xmlns="http://www.w3.org/2000/svg">
<path d="M146.12 32.16C150.04 32.16 153.16 33.44 155.48 36C157.84 38.52 159.02 42 159.02 46.44V66H148.82V47.82C148.82 45.58 148.24 43.84 147.08 42.6C145.92 41.36 144.36 40.74 142.4 40.74C140.44 40.74 138.88 41.36 137.72 42.6C136.56 43.84 135.98 45.58 135.98 47.82V66H125.72V32.52H135.98V36.96C137.02 35.48 138.42 34.32 140.18 33.48C141.94 32.6 143.92 32.16 146.12 32.16ZM197.71 48.72C197.71 49.68 197.65 50.68 197.53 51.72H174.31C174.47 53.8 175.13 55.4 176.29 56.52C177.49 57.6 178.95 58.14 180.67 58.14C183.23 58.14 185.01 57.06 186.01 54.9H196.93C196.37 57.1 195.35 59.08 193.87 60.84C192.43 62.6 190.61 63.98 188.41 64.98C186.21 65.98 183.75 66.48 181.03 66.48C177.75 66.48 174.83 65.78 172.27 64.38C169.71 62.98 167.71 60.98 166.27 58.38C164.83 55.78 164.11 52.74 164.11 49.26C164.11 45.78 164.81 42.74 166.21 40.14C167.65 37.54 169.65 35.54 172.21 34.14C174.77 32.74 177.71 32.04 181.03 32.04C184.27 32.04 187.15 32.72 189.67 34.08C192.19 35.44 194.15 37.38 195.55 39.9C196.99 42.42 197.71 45.36 197.71 48.72ZM187.21 46.02C187.21 44.26 186.61 42.86 185.41 41.82C184.21 40.78 182.71 40.26 180.91 40.26C179.19 40.26 177.73 40.76 176.53 41.76C175.37 42.76 174.65 44.18 174.37 46.02H187.21Z" fill="#333552"/>
<path d="M19.5 23.88C23.94 23.88 27.82 24.76 31.14 26.52C34.46 28.28 37.02 30.76 38.82 33.96C40.66 37.12 41.58 40.78 41.58 44.94C41.58 49.06 40.66 52.72 38.82 55.92C37.02 59.12 34.44 61.6 31.08 63.36C27.76 65.12 23.9 66 19.5 66H3.72V23.88H19.5ZM18.84 57.12C22.72 57.12 25.74 56.06 27.9 53.94C30.06 51.82 31.14 48.82 31.14 44.94C31.14 41.06 30.06 38.04 27.9 35.88C25.74 33.72 22.72 32.64 18.84 32.64H13.98V57.12H18.84Z" fill="#333552"/>
<path d="M102.356 24.9942C97.9181 20.0356 91.9579 16.693 85.4128 15.4924C78.8678 14.2917 72.1093 15.3013 66.2007 18.3621C60.2922 21.4229 55.5689 26.3613 52.7742 32.4002C49.9794 38.4391 49.2718 45.2359 50.7626 51.721C52.2533 58.2062 55.858 64.0116 61.0092 68.2239C66.1605 72.4363 72.5661 74.8164 79.2181 74.9898C85.8702 75.1632 92.3911 73.1201 97.7548 69.1819C103.119 65.2437 107.021 59.634 108.848 53.2353L98.9868 50.4203C97.7845 54.6318 95.2161 58.324 91.6858 60.916C88.1555 63.508 83.8636 64.8527 79.4854 64.7386C75.1072 64.6245 70.8912 63.0579 67.5007 60.2855C64.1103 57.513 61.7378 53.692 60.7566 49.4236C59.7754 45.1553 60.2412 40.6818 62.0806 36.7071C63.92 32.7324 67.0288 29.4821 70.9176 27.4675C74.8065 25.453 79.2548 24.7885 83.5626 25.5787C87.8704 26.369 91.7933 28.569 94.7139 31.8327L102.356 24.9942Z" fill="#333552"/>
<path d="M61.1484 41.0483C61.1484 41.0483 71.4699 56.0484 77.1484 56.0483C82.8268 56.0482 116.148 24.5483 116.148 24.5483" stroke="#5DFDCB" stroke-width="11" stroke-linecap="round"/>
</svg>
